<svg width="292" height="64" viewBox="0 0 292 64" fill="none" xmlns="http://www.w3.org/2000/svg">
<title>Logo</title>
<g clip-path="url(#clip0_245_1729)">
<path d="M37.627 48.9882C35.4632 57.1329 30.5344 63.8403 20.4364 63.8403C13.2235 63.8403 8.17456 60.8459 5.04899 55.456C2.16385 50.5452 0 43.9576 0 32.4591C0 17.8465 6.97242 0 23.4417 0C31.4961 0 37.1461 5.03057 37.1461 12.2171C37.1461 16.2895 34.8621 18.2059 32.3376 18.2059C31.4961 18.2059 30.6546 18.0861 29.9333 17.607C28.7312 16.7686 28.4907 15.451 28.7312 13.894C28.9716 12.6962 29.4524 11.0193 29.4524 10.0611C29.4524 4.91079 27.529 1.91641 22.7205 1.91641C14.6661 1.91641 10.098 14.2533 10.098 31.6207C10.098 39.4061 11.4203 46.8322 13.5842 51.6232C15.748 56.6538 18.8736 60.0075 24.163 60.0075C30.6546 60.0075 34.0206 55.456 36.3046 48.2695L37.7472 49.1079L37.627 48.9882Z" fill="#FDFCFC" fill-opacity="0.66"/>
<path d="M70.9254 0.000146523C80.5425 0.000146523 83.6681 7.42622 83.6681 16.4094C83.6681 29.3451 76.6957 49.3476 67.319 57.7319C62.7508 62.0438 58.6636 63.7207 53.1337 63.7207C47.3634 63.7207 40.0304 61.6845 39.9102 47.3114C39.9102 34.4955 47.123 14.3732 57.7018 5.62959C62.0295 1.91655 66.237 -0.119629 70.8052 -0.119629H70.9254V0.000146523ZM70.685 2.03633C67.5594 2.03633 64.6743 4.19229 61.0678 9.82173C54.6965 19.6433 48.0847 41.0831 48.0847 52.1025C48.0847 59.289 50.7294 61.924 53.7348 61.924C56.7401 61.924 59.2646 60.367 62.1498 56.055C68.7615 46.473 75.8542 21.5597 75.8542 10.0613C75.8542 5.03071 74.4116 2.1561 70.9254 2.1561H70.8052L70.685 2.03633Z" fill="#FDFCFC" fill-opacity="0.66"/>
<path d="M91.0017 24.4342C91.0017 16.0499 90.8815 10.5402 90.7613 6.22832C90.6411 4.19214 89.5591 3.83281 84.0293 4.07236V2.51528C88.9581 2.51528 95.3294 1.91641 99.7773 0.598877C100.018 2.87461 100.378 8.62383 100.378 10.0611C104.225 5.62944 110.236 0 117.208 0C122.137 0 124.662 2.03618 126.465 4.31192C127.667 5.74922 128.028 8.02495 128.508 9.58203C131.874 6.10855 137.284 0 145.338 0C151.229 0 154.475 3.47349 155.917 6.22832C157.119 8.62383 157.36 11.3787 157.36 13.6544V57.1329C157.36 60.1273 158.562 60.247 164.332 60.8459L164.092 62.403C161.327 62.403 156.879 61.9239 151.95 61.9239C147.743 61.9239 143.535 62.403 141.732 62.403V60.8459C146.18 60.7261 147.623 60.0075 147.743 57.4922C147.863 54.378 148.344 47.4311 148.344 35.0942C148.344 14.0137 148.464 12.5764 147.863 10.66C147.021 7.06675 144.497 4.67124 140.169 4.67124C135 4.67124 131.273 8.86338 129.831 12.0973C129.11 13.6544 128.869 15.451 128.869 17.7268V44.3169C128.869 49.587 128.989 53.8989 129.11 57.2527C129.35 60.0075 130.432 60.6064 135.601 60.8459L135 62.403C133.077 62.403 127.787 61.9239 123.58 61.9239C119.733 61.9239 115.525 62.403 113.362 62.403V60.8459C117.809 60.3668 119.132 60.1273 119.252 56.7736C119.733 52.3419 119.733 46.952 119.733 37.9688V24.1946C119.733 13.5346 119.613 12.2171 119.132 10.0611C118.17 6.70742 116.247 4.55147 111.799 4.55147C107.351 4.55147 103.624 8.2645 101.46 12.4566C100.499 14.6126 100.258 16.6488 100.258 18.9245V44.1971C100.258 49.4673 100.378 53.4198 100.859 56.8933C101.1 60.0075 102.182 60.3668 107.231 60.7261L106.75 62.2832C104.105 62.2832 98.5752 61.8041 95.089 61.8041C92.0836 61.8041 87.0347 62.2832 84.3899 62.2832V60.7261C89.1985 60.4866 90.4006 60.0075 90.7613 56.4142C91.0017 52.1023 91.2421 46.952 91.2421 37.849V24.1946L91.0017 24.4342Z" fill="#FDFCFC" fill-opacity="0.66"/>
<path d="M172.386 24.4342C172.386 16.0499 172.266 10.5402 172.146 6.22832C172.026 4.19214 170.944 3.83281 165.414 4.07236V2.51528C170.343 2.51528 176.714 1.91641 181.162 0.598877C181.403 2.87461 181.763 8.62383 181.763 10.0611C185.61 5.62944 191.621 0 198.593 0C203.522 0 206.046 2.03618 207.85 4.31192C209.052 5.74922 209.412 8.02495 209.893 9.58203C213.259 6.10855 218.669 0 226.723 0C232.614 0 235.86 3.47349 237.302 6.22832C238.504 8.62383 238.745 11.3787 238.745 13.6544V57.1329C238.745 60.1273 239.947 60.247 245.717 60.8459L245.477 62.403C242.712 62.403 238.264 61.9239 233.335 61.9239C229.128 61.9239 224.92 62.403 223.117 62.403V60.8459C227.565 60.7261 229.007 60.0075 229.128 57.4922C229.248 54.378 229.729 47.4311 229.729 35.0942C229.729 14.0137 229.849 12.5764 229.248 10.66C228.406 7.06675 225.882 4.67124 221.554 4.67124C216.385 4.67124 212.658 8.86338 211.216 12.0973C210.494 13.6544 210.254 15.451 210.254 17.7268V44.3169C210.254 49.587 210.374 53.8989 210.494 57.2527C210.735 60.0075 211.817 60.6064 216.986 60.8459L216.385 62.403C214.461 62.403 209.172 61.9239 204.964 61.9239C201.118 61.9239 196.91 62.403 194.746 62.403V60.8459C199.194 60.3668 200.517 60.1273 200.637 56.7736C201.118 52.3419 201.118 46.952 201.118 37.9688V24.1946C201.118 13.5346 200.997 12.2171 200.517 10.0611C199.555 6.70742 197.631 4.55147 193.184 4.55147C188.736 4.55147 185.009 8.2645 182.845 12.4566C181.883 14.6126 181.643 16.6488 181.643 18.9245V44.1971C181.643 49.4673 181.763 53.4198 182.244 56.8933C182.484 60.0075 183.566 60.3668 188.615 60.7261L188.135 62.2832C185.49 62.2832 179.96 61.8041 176.474 61.8041C173.468 61.8041 168.419 62.2832 165.775 62.2832V60.7261C170.583 60.4866 171.785 60.0075 172.146 56.4142C172.386 52.1023 172.627 46.952 172.627 37.849V24.1946L172.386 24.4342Z" fill="#FDFCFC" fill-opacity="0.66"/>
<path d="M272.607 12.4566C272.607 5.98877 270.203 1.91641 265.154 1.91641C259.624 1.91641 256.619 4.79102 256.619 10.5402C256.619 12.4566 257.1 13.5346 257.34 14.8522C257.58 16.1697 257.1 17.1279 256.619 17.607C255.777 18.4454 254.335 18.8047 253.253 18.8047C250.608 18.8047 248.805 16.8883 248.805 13.0555C248.805 7.54585 255.417 0 266.597 0C274.41 0 278.137 3.35371 279.82 5.74922C281.022 7.42608 281.744 10.3007 281.744 12.6962V52.9407C281.744 58.8097 283.186 60.0075 284.749 60.0075C287.033 60.0075 288.596 56.2945 289.557 52.2221L291 53.0605C289.798 61.2052 285.23 63.8403 280.662 63.8403C275.613 63.8403 273.208 60.7261 272.848 54.6176C268.76 60.3668 263.711 63.8403 258.903 63.8403C251.089 63.8403 246.16 56.8933 246.16 48.1497C246.16 43.1192 247.723 38.6875 251.45 36.5315C258.422 32.4591 266.597 29.4648 272.607 24.3144V12.5764V12.4566ZM256.258 45.874C256.258 52.4616 258.903 58.9295 263.711 58.9295C267.919 58.9295 270.443 56.2945 272.126 51.6232C272.607 50.665 272.848 47.9102 272.848 46.5926V26.8297C269.241 29.5845 266.236 31.0218 261.788 34.136C259.143 36.0524 256.258 38.2084 256.258 45.7542V45.874Z" fill="#FDFCFC" fill-opacity="0.66"/>
</g>
<defs>
<clipPath id="clip0_245_1729">
<rect width="292" height="63.8403" fill="white"/>
</clipPath>
</defs>
</svg>
